<svg id="h" xmlns="http://www.w3.org/2000/svg" viewBox="0 0 24 24"><rect x="13" y="14" width="3" height="8" fill="#fca35e"></rect><rect x="18" y="19" width="3" height="3" fill="#fca35e"></rect><path d="M20.922,3.945c-.01,0-1.52,.12-3.23,.73-3.02,1.08-6.92,3.05-8.23,4.47-1.19,1.29-3.59,5.12-4.81,8.45-.44,1.2-.61,2.47-.67,3.32-.05,.51-.05,.88-.04,1h-.97c-.01-.14-.01-.5,.03-1,.06-.92,.24-2.31,.74-3.66,1.26-3.44,3.77-7.43,5.01-8.77,1.46-1.59,5.53-3.62,8.62-4.73,1.83-.65,3.41-.78,3.48-.78l.07,.97Z" fill="#6285fe"></path><g><path d="M10.383,6H6v1h2.945c.425-.336,.91-.672,1.438-1Z" fill="#fc785f"></path><path d="M14.662,7h6.338v-1h-4.052c-.777,.308-1.549,.648-2.286,1Z" fill="#fc785f"></path></g><path d="M10.171,9.806c-.528,.574-1.34,1.737-2.171,3.139v9.056h3V9.095c-.349,.256-.632,.496-.829,.711Z" fill="#fca35e"></path><g><path d="M6.003,16.835v5.08h-1.1c0-.07,0-.45,.04-1,.07-.78,.23-1.92,.62-2.98,.13-.36,.28-.73,.44-1.1Z" fill="#fca35e"></path><path d="M6,10.638V3H3v13.489c.8-2.051,1.941-4.167,3-5.851Z" fill="#fca35e"></path></g></svg>